<?xml version="1.0" standalone="no"?>
<!DOCTYPE svg PUBLIC "-//W3C//DTD SVG 20010904//EN"
 "http://www.w3.org/TR/2001/REC-SVG-20010904/DTD/svg10.dtd">
<svg version="1.0" xmlns="http://www.w3.org/2000/svg"
 width="270.000000pt" height="270.000000pt" viewBox="0 0 270.000000 270.000000"
 preserveAspectRatio="xMidYMid meet">
<metadata>
Created by potrace 1.14, written by Peter Selinger 2001-2017
</metadata>
<g transform="translate(0.000000,270.000000) scale(0.100000,-0.100000)"
fill="#000000" stroke="none">
<path d="M1265 2619 c-544 -368 -965 -791 -1146 -1151 -22 -44 -56 -128 -76
-186 -32 -96 -37 -121 -41 -239 -7 -206 26 -327 133 -489 173 -260 467 -439
866 -526 93 -20 131 -22 359 -22 227 0 266 2 358 22 348 76 633 235 801 446
70 88 137 218 161 311 28 109 28 283 0 383 -23 84 -77 196 -126 263 -61 84
-1134 1264 -1152 1267 -9 1 -71 -34 -137 -79z m-335 -979 l0 -420 220 0 220 0
0 175 0 175 140 0 140 0 0 -191 c0 -108 4 -189 9 -187 5 2 46 44 92 93 45 50
125 134 176 188 l94 97 167 0 167 -1 -197 -190 -197 -191 173 -206 c95 -114
185 -222 200 -239 l28 -33 -165 0 -164 0 -122 155 c-67 85 -127 157 -132 160
-5 4 -36 -15 -69 -41 l-60 -47 0 -358 0 -359 -140 0 -140 0 0 425 0 425 -220
0 -220 0 0 -180 0 -180 -140 0 -140 0 0 675 0 675 140 0 140 0 0 -420z m720
320 l0 -100 -345 0 -345 0 0 100 0 100 345 0 345 0 0 -100z m-310 -1640 l0
-100 -345 0 -345 0 0 100 0 100 345 0 345 0 0 -100z"/>
</g>
</svg>
